<svg width="122" height="36" viewBox="0 0 122 36" fill="none" xmlns="http://www.w3.org/2000/svg">
<path d="M59.254 13.39C58.57 13.39 57.952 13.51 57.4 13.75C56.848 13.978 56.38 14.32 55.996 14.776C55.612 15.22 55.318 15.766 55.114 16.414C54.91 17.05 54.808 17.77 54.808 18.574C54.808 19.63 54.97 20.548 55.294 21.328C55.63 22.108 56.122 22.708 56.77 23.128C57.43 23.548 58.252 23.758 59.236 23.758C59.8 23.758 60.334 23.71 60.838 23.614C61.342 23.518 61.834 23.398 62.314 23.254V24.658C61.834 24.838 61.336 24.97 60.82 25.054C60.316 25.138 59.71 25.18 59.002 25.18C57.694 25.18 56.602 24.91 55.726 24.37C54.85 23.83 54.19 23.062 53.746 22.066C53.314 21.07 53.098 19.9 53.098 18.556C53.098 17.584 53.23 16.696 53.494 15.892C53.77 15.088 54.166 14.392 54.682 13.804C55.21 13.216 55.858 12.766 56.626 12.454C57.394 12.13 58.276 11.968 59.272 11.968C59.932 11.968 60.568 12.034 61.18 12.166C61.792 12.298 62.338 12.484 62.818 12.724L62.17 14.092C61.774 13.912 61.33 13.75 60.838 13.606C60.358 13.462 59.83 13.39 59.254 13.39ZM79.5815 18.556C79.5815 19.552 79.4555 20.458 79.2035 21.274C78.9515 22.078 78.5735 22.774 78.0695 23.362C77.5775 23.95 76.9595 24.4 76.2155 24.712C75.4835 25.024 74.6315 25.18 73.6595 25.18C72.6515 25.18 71.7755 25.024 71.0315 24.712C70.2875 24.388 69.6695 23.938 69.1775 23.362C68.6855 22.774 68.3195 22.072 68.0795 21.256C67.8395 20.44 67.7195 19.534 67.7195 18.538C67.7195 17.218 67.9355 16.066 68.3675 15.082C68.7995 14.098 69.4535 13.33 70.3295 12.778C71.2175 12.226 72.3335 11.95 73.6775 11.95C74.9615 11.95 76.0415 12.226 76.9175 12.778C77.7935 13.318 78.4535 14.086 78.8975 15.082C79.3535 16.066 79.5815 17.224 79.5815 18.556ZM69.4295 18.556C69.4295 19.636 69.5795 20.566 69.8795 21.346C70.1795 22.126 70.6415 22.726 71.2655 23.146C71.9015 23.566 72.6995 23.776 73.6595 23.776C74.6315 23.776 75.4235 23.566 76.0355 23.146C76.6595 22.726 77.1215 22.126 77.4215 21.346C77.7215 20.566 77.8715 19.636 77.8715 18.556C77.8715 16.936 77.5355 15.67 76.8635 14.758C76.1915 13.834 75.1295 13.372 73.6775 13.372C72.7055 13.372 71.9015 13.582 71.2655 14.002C70.6415 14.41 70.1795 15.004 69.8795 15.784C69.5795 16.552 69.4295 17.476 69.4295 18.556ZM89.648 25H85.004V24.064L86.516 23.722V13.444L85.004 13.084V12.148H89.648V13.084L88.136 13.444V23.722L89.648 24.064V25ZM105.918 25H104.028L97.1516 14.326H97.0796C97.0916 14.542 97.1036 14.782 97.1156 15.046C97.1396 15.31 97.1576 15.598 97.1696 15.91C97.1816 16.21 97.1936 16.522 97.2056 16.846C97.2176 17.17 97.2236 17.494 97.2236 17.818V25H95.7296V12.148H97.6016L104.46 22.786H104.532C104.52 22.642 104.508 22.444 104.496 22.192C104.484 21.928 104.472 21.64 104.46 21.328C104.448 21.004 104.436 20.674 104.424 20.338C104.412 20.002 104.406 19.69 104.406 19.402V12.148H105.918V25ZM120.295 21.562C120.295 22.33 120.109 22.984 119.737 23.524C119.365 24.052 118.831 24.46 118.135 24.748C117.451 25.036 116.641 25.18 115.705 25.18C115.225 25.18 114.763 25.156 114.319 25.108C113.887 25.06 113.491 24.994 113.131 24.91C112.771 24.814 112.453 24.7 112.177 24.568V23.02C112.609 23.212 113.143 23.386 113.779 23.542C114.427 23.698 115.093 23.776 115.777 23.776C116.413 23.776 116.947 23.692 117.379 23.524C117.811 23.356 118.135 23.116 118.351 22.804C118.567 22.492 118.675 22.126 118.675 21.706C118.675 21.286 118.585 20.932 118.405 20.644C118.225 20.356 117.913 20.092 117.469 19.852C117.037 19.6 116.431 19.336 115.651 19.06C115.099 18.856 114.613 18.64 114.193 18.412C113.785 18.172 113.443 17.902 113.167 17.602C112.891 17.302 112.681 16.96 112.537 16.576C112.405 16.192 112.339 15.748 112.339 15.244C112.339 14.56 112.513 13.978 112.861 13.498C113.209 13.006 113.689 12.628 114.301 12.364C114.925 12.1 115.639 11.968 116.443 11.968C117.151 11.968 117.799 12.034 118.387 12.166C118.975 12.298 119.509 12.472 119.989 12.688L119.485 14.074C119.041 13.882 118.555 13.72 118.027 13.588C117.511 13.456 116.971 13.39 116.407 13.39C115.867 13.39 115.417 13.468 115.057 13.624C114.697 13.78 114.427 14.002 114.247 14.29C114.067 14.566 113.977 14.89 113.977 15.262C113.977 15.694 114.067 16.054 114.247 16.342C114.427 16.63 114.721 16.888 115.129 17.116C115.537 17.344 116.089 17.59 116.785 17.854C117.541 18.13 118.177 18.43 118.693 18.754C119.221 19.066 119.617 19.444 119.881 19.888C120.157 20.332 120.295 20.89 120.295 21.562Z" fill="white"/>
<path d="M12.2501 8.27568C13.9373 7.45814 16.1489 7 18.5 7C20.8511 7 23.0627 7.45814 24.7499 8.27568C26.3131 9.03308 28 10.4137 28 12.4999C28 14.5861 26.3131 15.9668 24.7499 16.7242C23.0627 17.5417 20.8511 17.9999 18.5 17.9999C16.1489 17.9999 13.9373 17.5417 12.2501 16.7242C10.687 15.9668 9 14.5861 9 12.4999C9 10.4137 10.687 9.03308 12.2501 8.27568ZM13.7139 11.3767C12.4526 11.9879 12.3929 12.4999 12.3929 12.4999C12.3929 12.4999 12.4526 13.012 13.7139 13.6231C14.8512 14.1741 16.5411 14.5624 18.5 14.5624C20.4589 14.5624 22.1488 14.1741 23.2861 13.6231C24.5474 13.012 24.6071 12.4999 24.6071 12.4999C24.6071 12.4999 24.5474 11.9879 23.2861 11.3767C22.1488 10.8258 20.4589 10.4375 18.5 10.4375C16.5411 10.4375 14.8512 10.8258 13.7139 11.3767ZM18.5 20.7501C22.329 20.7501 25.7463 19.5599 27.9859 17.6976C27.9951 17.798 28 17.8989 28 18.0007C28 21.038 23.7467 23.5006 18.5 23.5006C13.2533 23.5006 9 21.038 9 18.0007C9 17.8989 9.00475 17.798 9.01417 17.6976C11.2536 19.5599 14.671 20.7501 18.5 20.7501ZM18.5 26.25C22.329 26.25 25.7463 25.0598 27.9859 23.1976C27.9954 23.2977 28 23.3986 28 23.5001C28 26.5377 23.7467 29 18.5 29C13.2533 29 9 26.5377 9 23.5001C9 23.3986 9.00475 23.2977 9.01412 23.1976C11.2536 25.0598 14.671 26.25 18.5 26.25Z" fill="#212121"/>
<path d="M12.2501 8.27568C13.9373 7.45814 16.1489 7 18.5 7C20.8511 7 23.0627 7.45814 24.7499 8.27568C26.3131 9.03308 28 10.4137 28 12.4999C28 14.5861 26.3131 15.9668 24.7499 16.7242C23.0627 17.5417 20.8511 17.9999 18.5 17.9999C16.1489 17.9999 13.9373 17.5417 12.2501 16.7242C10.687 15.9668 9 14.5861 9 12.4999C9 10.4137 10.687 9.03308 12.2501 8.27568ZM13.7139 11.3767C12.4526 11.9879 12.3929 12.4999 12.3929 12.4999C12.3929 12.4999 12.4526 13.012 13.7139 13.6231C14.8512 14.1741 16.5411 14.5624 18.5 14.5624C20.4589 14.5624 22.1488 14.1741 23.2861 13.6231C24.5474 13.012 24.6071 12.4999 24.6071 12.4999C24.6071 12.4999 24.5474 11.9879 23.2861 11.3767C22.1488 10.8258 20.4589 10.4375 18.5 10.4375C16.5411 10.4375 14.8512 10.8258 13.7139 11.3767ZM18.5 20.7501C22.329 20.7501 25.7463 19.5599 27.9859 17.6976C27.9951 17.798 28 17.8989 28 18.0007C28 21.038 23.7467 23.5006 18.5 23.5006C13.2533 23.5006 9 21.038 9 18.0007C9 17.8989 9.00475 17.798 9.01417 17.6976C11.2536 19.5599 14.671 20.7501 18.5 20.7501ZM18.5 26.25C22.329 26.25 25.7463 25.0598 27.9859 23.1976C27.9954 23.2977 28 23.3986 28 23.5001C28 26.5377 23.7467 29 18.5 29C13.2533 29 9 26.5377 9 23.5001C9 23.3986 9.00475 23.2977 9.01412 23.1976C11.2536 25.0598 14.671 26.25 18.5 26.25Z" fill="url(#paint0_linear_212_608)"/>
<defs>
<linearGradient id="paint0_linear_212_608" x1="9" y1="18" x2="28" y2="18" gradientUnits="userSpaceOnUse">
<stop stop-color="#8C28C7"/>
<stop offset="1" stop-color="#5E37FD"/>
</linearGradient>
</defs>
</svg>
